<?xml version="1.0" encoding="UTF-8"?>
<svg id="Layer_2" data-name="Layer 2" xmlns="http://www.w3.org/2000/svg" width="278.04" height="84.37" viewBox="0 0 278.04 84.37">
  <defs>
    <style>
      .cls-1 {
        font-family: Roboto-Regular, Roboto;
        font-size: 8.06px;
      }

      .cls-1, .cls-2 {
        fill: #0a2240;
      }

      .cls-2, .cls-3, .cls-4, .cls-5, .cls-6 {
        stroke-width: 0px;
      }

      .cls-3 {
        fill: #231f20;
      }

      .cls-4 {
        fill: #fff200;
      }

      .cls-5 {
        fill: #ec008c;
      }

      .cls-6 {
        fill: #00aeef;
      }
    </style>
  </defs>
  <g id="Layer_1-2" data-name="Layer 1">
    <g>
      <g>
        <path class="cls-2" d="M112.96,31.52c.64.79.81,1.43.96,2.3.17.94-.14,2.19-1.02,3.78-.56,1-2.62,3.29-5.08,5.68-2.47,2.38-5.66,5.11-7.35,6.56-1.68,1.44-3.88,3.09-4.89,3.82-1.18.85-3.04,2.25-3.04,2.25,0,0-2.28,1.13-1.9,2.45-.37-1.32.96-2.3.96-2.3,0,0,2.02-1.45,3.2-2.3,1.01-.73,3.56-2.79,5.24-4.24,1.69-1.44,4.85-4.12,7.28-6.53,3.26-3.22,4.59-4.87,5.24-5.82.64-.95,1.04-2.14,1.08-3.1.02-.31-.04-1.74-.68-2.54"/>
        <g>
          <path class="cls-2" d="M278.04,19.72c-.08.29-1.32,1.83-1.99,2.56-.72.78-1.03,1.48-1.84,1.64-1.11.22-4.58.09-8.57.47-3.54.33-12.5,1.04-21.94,3.09-9.44,2.06-13.09,3.09-20.79,6.03-6.49,2.48-11.03,5.62-14.79,8.06-.76.5-3.24,2.35-5.54,3.26-.79.31-2.54.99-4.17.28,1.17.93,3.05.54,4.43.05,2.22-.79,4.8-2.47,5.54-3l.1-.08c3.77-2.44,8.33-5.53,14.83-8.01,7.7-2.94,11.68-4.14,21.12-6.2,9.44-2.06,17.9-2.62,22.09-3.02,3.55-.34,7.02-.37,8.14-.34.55.02,1.09-.94,1.63-1.86.49-.82,1.47-2.56,1.74-2.94"/>
          <path class="cls-2" d="M25.62,72.41c.38.09.88.09,1.24-.19.38-.31.78-.91.94-1.39.19-.58.61-1.8.78-2.29.18-.49,7.26-7.67,8.99-9.85,2.44-3.07,5.28-6.86,6.98-9.15,1.69-2.29,1.61-2.15,2.93-3.41.98-.94,2.47-2.27,5.56-3.57,3.84-1.62,8.29-2.05,11.16-2.31,5.79-.53,10.87.2,13.33,1.15-3.79-.85-6.35-1.23-13.33-.75-2.87.2-6.76.7-10.34,2.22-3.58,1.52-4.06,2.25-4.93,2.96-1.13.92-1.39.84-3.04,3.08-1.7,2.29-4.04,5.48-6.48,8.56-1.73,2.18-10.1,11.05-10.28,11.54-.17.48-.55,1.37-.79,1.91-.29.64-.77,1.16-1.15,1.38-.43.25-.97.29-1.62.14l.05-.02"/>
          <path class="cls-2" d="M72.71,22.62c-.11-.53.01-1.25-2.48-1.35-2.5-.11-7.47.35-12.8,1.4-4.23.83-9.73,2.55-13.57,4.23-4.16,1.82-6.75,3.21-8.48,4.8-1.73,1.58-3.82,3.66-4.46,4.31-.64.64-1.81.66-2.33.44.91.26,1.84-.4,2.47-1.04.65-.65,2.09-2.31,3.82-3.9,1.73-1.59,4.13-3.07,8.28-4.91,3.88-1.71,8.93-3.36,13.14-4.26,4.94-1.05,11.15-1.73,13.88-1.56,2.49.16,2.11.29,2.46.91l.06.93"/>
          <path class="cls-2" d="M4.98,83.41c.4.21.79.38,1.17.52,1.75.62,4.3.65,10.19-.31,6.62-1.08,19.04-4.57,21.2-5.24,3.86-1.19,11.39-3.89,16.18-6,4.21-1.85,10.23-4.47,13.42-6.26,3.47-1.95,9.87-5.89,13.94-10.43,3.42-3.8,4.7-8.36,4.77-9.37.11-1.51-1.09-3.71-2.32-5.6l-.27-.35c1.24,1.89,2.03,4.81,2.01,5.66-.02,1.02-1.4,5.82-5.21,9.77-3.4,3.54-7.44,6.16-11.21,8.55-1.83,1.16-10.38,5.25-15.4,7.36-5.34,2.24-13.29,5.16-16.81,6.19-3.05.9-13.53,4.04-20.12,5.02-5.91.88-8.72,1.62-11.52.44v.04"/>
          <path class="cls-2" d="M112.96,31.52c.64.79.81,1.43.96,2.3.17.94-.14,2.19-1.02,3.78-.56,1-2.62,3.29-5.08,5.68-2.47,2.38-5.66,5.11-7.35,6.56-1.68,1.44-3.88,3.09-4.89,3.82-1.18.85-3.04,2.25-3.04,2.25,0,0-2.28,1.13-1.9,2.45-.37-1.32.96-2.3.96-2.3,0,0,2.02-1.45,3.2-2.3,1.01-.73,3.56-2.79,5.24-4.24,1.69-1.44,4.85-4.12,7.28-6.53,3.26-3.22,4.59-4.87,5.24-5.82.64-.95,1.04-2.14,1.08-3.1.02-.31-.04-1.74-.68-2.54Z"/>
          <path class="cls-2" d="M163.47,41.5c.06-.38.18-.82.32-1.25.33-1,1.87-5.02,3.14-7.46,1.28-2.44,4.5-8.3,6.11-11.01,2.03-3.41,6.55-10.57,6.83-11.08.45-.81.65-1.91,1-3.97.29-1.7.66-4.04.9-5,.24-.96.25-1.83-.05-1.69.33-.26.38.72.23,1.61-.18,1.08-.14,1.56-.54,3.67-.28,1.44-.64,5.01-1.05,5.6-.32.48-3.13,4.77-5.17,8.17-1.61,2.71-5.49,9.5-6.78,11.94-1.28,2.44-1.99,3.61-2.62,5.23-.44,1.15-2.19,4.34-2.33,5.24"/>
          <path class="cls-2" d="M69.55,33.54c4.94-3.44,9.26-6.41,9.49-10.7.02-.47-.9-3.15-1.46-3.83.76.69,2.13,3.17,2.11,3.64-.05,1.82-1.13,3.41-2.05,4.57-1.66,2.1-6.05,5.34-8.09,6.31"/>
          <path class="cls-2" d="M54.95,28.77c.37.88,1.36,2.81,1.16,3.62-.2.83-2.97,3.66-2.99,3.7.02-.04,2.33-2.56,2.58-3.85.16-.82-.39-2.3-.76-3.47"/>
        </g>
        <g>
          <path class="cls-2" d="M272.13,18.62c-1.89.01-7.89.55-10,.78-2.11.22-15.49,2.1-20.94,3.27-6.33,1.35-12.88,3.11-18.73,5.33-4.04,1.53-11.61,5.34-15.4,7.72-1.53.97-2.77,1.77-3.71,2.39.57-1.23,1.11-2.24,1.49-2.87,2.04-3.41,4.67-7.57,5-8.05.11-.18-.12-1.15-.12-1.15-.71-.78-2.09-1.89-1.9-2.9.27-1.38-.58-1.89-1.08-2.68.42.68,1.01,1.46.82,2.5-.25,1.55,1.18,2.24,1.8,3.25.05.09.11.8.11.8-.28.51-4.16,6.29-6.52,10.66-.1.19-.26.56-.43,1-.88.57-1.39.89-1.59.96-.41.14-.23-1.02-.12-1.27.41-1,1.51-3.23,3.42-6.34,1.72-2.8,1.6-2.69,3.29-4.84v-1.03c-1.82-.66-1.65-2.95-1.49-3.67.16-.71-.69-2.3-1.14-2.54-.47-.23-.79-.16-1.96.88-1.32,1.2-2.62,2.6-6.03,5.57-3.39,2.97-5.48,4.73-7.15,6.19-2.94,2.57-8.12,6.61-9.18,7.38-2.35,1.73-4.56,2.75-5.64,2.86-.05,0-.1.01-.15.01l.04-.04c.57-.69,12.38-10.75,17.13-19.02.73-1.25,1.09-3.14.23-4.34.61,1.63-.11,3.33-.54,4.06-4.91,8.5-16.85,18.31-17.38,19.02l-.15.1c-.38-.3-.48-.86-.47-1.14.01-.43.23-.93.23-.93,0,0,1.09-.98,1.93-1.67,1.33-1.1,3.77-3.4,5.12-4.78,1.6-1.65,3.75-4.14,5.66-6.44,1.88-2.31,3.06-4.51,3.49-5.43.43-.92.53-1.86.34-2.63-.07-.32-.16-1.46-1.96-1.7-1.28-.17-2.92-.03-6.93,2.92-4.03,2.96-6.23,6.69-7.8,9.28-1.57,2.61-2.54,6.22-2.7,7.97,0,0-.25.58-1.58,1.74-2.07,1.81-2.85,2.51-4.06,3.13-2.37,1.24-3.34.64-3.84.25-.55-.45-.41-1.38-.34-1.87.09-.71,1.56-4.61,2.85-7.14,1.31-2.54,4.96-9.29,6.6-12.12,2.08-3.55,6.68-10.78,6.97-11.3.73-1.27.52-1.49.99-3.19.46-1.71.97-4.84,1.2-5.82.24-1-.09-1.36-.44-1.09-.35.27-2.97,4.13-5.02,7.36-2.07,3.23-5.29,8.92-7.16,12.22-1.86,3.32-2.94,5.33-3.48,5.6-.55.27-.04-1.88-2.59-1.7-1.84.15-5.7,2.84-9.22,5.16-3.52,2.33-7.12,4.88-9.42,6.89-2.07,1.82-7.25,7.06-8.99,8.7.08-.15.16-.29.22-.43.37-.79,2.12-3.73,3.35-5.7,1.24-1.97,4.18-6.16,5.1-7.51,1.14-1.73,1.36-2.38.41-3.92-.82-1.32-1.28-1.83-1.89-1.94.57.14,1.08.99,1.51,1.89.79,1.65.53,2.2-.85,4.35-.87,1.37-3.23,5.04-4.47,7-1.24,1.97-2.65,4.53-3.02,5.33-.09.19-.26.62-.41.99-.15.15-.27.26-.35.33-1.03.9-2.23,2.15-2.42,2-.2-.15.46-1.41.82-2.26.36-.85,2.08-4.01,3.3-6.13,1.22-2.11,4.41-7.3,5.28-8.78.85-1.48.8-1.91.17-3.43-.63-1.52-1.52-1.33-2.4-1-.89.33-3.53,2.47-5.4,3.98-1.87,1.52-4.16,3.53-4.93,4.08-.76.54-.52-.58-.58-1.02-.04-.43.02-1.13-.68-1.75-.37-.31-1.3-.29-1.97-.07-1.16.38-1.94.89-3.9,2.53-1.09.92-1.31,1-5.01,4.69-.84.84-4.61,4.64-6.11,6.38-.02.02-.04.05-.07.07-4.39,4.32-11.3,11.13-13.53,12.55-2.88,1.81-4.08,2.4-5.26,2.52s-1.38-1.02-1.4-1.47c-.09-1.68,1.4-3.16,1.4-3.16,0,0,1.05-.83,2.14-1.49,1.08-.66,3.88-3.05,5.6-4.52,1.72-1.48,5.28-4.72,7.79-7.17,2.52-2.43,4.45-4.9,5.12-5.87.64-.98.88-2.24.92-2.8.04-.55.05-1.83-1.72-2.35-1.77-.52-2.84-.1-7.75,3.02-3.1,1.98-7,5.77-10.61,10.45-2.16,2.81-3.29,5.23-4.32,7.81-.69,1.75-.86,1.56-1.94,2.16-.87.49-.88.55-2,1.04,0,0-1.27.31-1.5,1.77-.23,1.42,1.73,1.59,1.73,1.59,1.2-.07,1.25-.11,1.25-.12.31-.1-.21.84.02,2.14-.07.02-.48.1-1.58.06,0,0-2.12-.28-1.88-1.71l-.07.2c-.22,1.37,1.26,1.84,1.26,1.84.82.36,2.1.26,2.43.22.32.93,1.05,1.7,2.5,2.03,1.63.38,3.02-.05,4.72-.85,2.02-.94,4.69-2.57,7.76-5.13,4.97-4.15,7.75-7.3,11.03-10.65,1.9-2.09,3.36-3.64,4.16-4.49,2.22-2.39,5.54-5.52,5.54-5.52,0,0,4.18-3.11-1.55,3.55-.77.89-2.17,2.6-3.59,4.4-4.62,4.73-10.97,11.21-14.45,14.17-3.52,3.02-6.73,4.69-8.5,5.38-1.77.69-3.33,1.02-4.96.61,1.3.48,3.47.62,5.22-.08,2.17-.88,5.37-2.62,8.64-5.54,2.94-2.63,8.1-7.95,12.6-12.69-1.22,1.56-2.29,3-2.79,3.81-.52.85-3.16,4.86-3.39,5.71-.23.85.43,1.37.83,1.46,1.66.37,2.61-1,2.61-1,0,0,1.67-2.67,2.67-4.33,1.8-3,4.96-6.76,7.01-9.07.87-.99,4.48-4.61,6.86-6.5,2.27-1.81,5.08-3.85,5.77-4.4.69-.55,1.36-.45,1.36-.45,0,0-.75,1.26-1.54,2.57h-.01c-3.52,2.89-9.28,7.75-11.61,10.55-1.89,2.28-4.85,5.92-6.46,8.79-.88,1.58-2.4,4.15-2.4,4.15,0,0-.72,1.61-2.36,1.29,1.91.72,2.85-1.16,2.85-1.16,0,0,1.91-3.22,2.82-4.82,1.6-2.86,4.45-6.22,6.37-8.48,1.65-1.96,6.92-6.55,10.22-9.37-.24.37-.46.74-.66,1.04-1,1.55-3.51,6.12-4.09,7.53s-1.5,4.46-1.74,5.52c-.23,1.07.06,2.43.85,3.32.78.89,2.38.1,2.85-.34.99-.95,1.68-1.57,2.3-2.22,1.31-1.39,3.69-3.61,4.82-4.87,1.11-1.25,4.53-4.66,4.89-5,.34-.34.61-.26.61-.26,0,0-.54,1.01-1.51,2.67-.23.37-.47.92-.71,1.53-1.78,1.84-3.86,3.98-5.08,5.23-.62.63-2.69,2.77-3.83,4.03-.82.93-2.1.97-2.91.77.99.32,2.05.67,3.28-.63,1.02-1.05,3.01-3.07,3.91-4.08.51-.57,2.51-2.59,4.31-4.46-.27.75-.53,1.55-.73,2.28-.47,1.63-.29,2.92.01,3.65.32.73.96,1.96,2.37,2.29,1.4.33,3.23-1.28,4.83-2.8,1.5-1.42,1.79-1.53,4.58-4.66,2.94-3.3,4.89-5.48,5.72-6.46.85-.98,1.41-1.56,1.41-1.56,0,0,.37-.19.17.17-.22.35-.68,1.82-.9,2.82-.04.19-.08.42-.09.67-2.37,2.61-6.49,7.19-7.17,7.89-.62.64-2.41,2.77-4.4,4.16-.69.49-2.19,1.53-3.92,1.21,1.33.64,3.04-.16,4.24-.94,1.96-1.27,4.76-4.31,5.36-4.98.32-.37,3.91-4.4,5.88-6.6.03.97.27,2.12.82,3.08.78,1.38,2.11,2.12,3.68,2.12,1.96,0,3.45-.48,5.11-1.59,1.06-.71,1.81-1.33,2.97-2.3.6-.51.35-.17.81.56.16.26.28.49.44.69-.12.09-.27.21-.43.33-.15.1-.29.22-.46.33-.37.28-.81.59-1.27.9-.42.29-.86.58-1.31.85-.49.3-.99.58-1.47.81-.77.36-2.42,1.15-4.07.54,1.21.85,3.03.35,4.34-.23.14-.06.28-.12.43-.2.14-.06.26-.12.4-.2.45-.23.9-.49,1.35-.76.24-.14.47-.28.7-.43.92-.59,1.73-1.18,2.22-1.55.29.24.7.45,1.34.67,1.54.55,3.92-.56,5.43-1.23,1.51-.68,3.8-2.16,6.47-4.26,3-2.34,5.6-4.74,7.68-6.47,1.04-.86,9.68-8.79,9.71-8.79l.09.16s.21.63.36,1.14c-.79.79-2.23,2.25-4.09,4.06-.24.23-.49.47-.74.71-.32.31-.67.63-1.01.96-.21.2-.42.4-.62.59-1.42,1.32-2.99,2.75-4.63,4.18-.33.29-.67.57-1,.85-1.03.88-2.08,1.75-3.15,2.6-.56.46-1.13.89-1.71,1.32-.8.61-1.6,1.2-2.4,1.75-.29.22-.58.42-.87.61-1.44.96-2.85,1.82-4.2,2.52-.75.38-2.45,1.18-4.13.67,1.25.78,3.14.34,4.42-.29.62-.31,1.28-.68,1.95-1.07.6-.35,1.22-.75,1.84-1.16,1.32-.87,2.68-1.87,4.07-2.94.86-.67,1.74-1.36,2.59-2.07,2.06-1.7,4.08-3.47,5.93-5.16.31-.29.61-.57.92-.84.92-.85,1.8-1.67,2.6-2.44.24-.23.47-.45.7-.67.99-.96,1.86-1.81,2.57-2.51.14-.15.27-.27.4-.4.03-.04.07-.07.1-.1.1-.1.2-.2.29-.29.12-.12.24-.24.34-.34.02.09.04.15.04.15,0,0-4.23,7.54-5.38,9.8-1.15,2.26-1.29,3.41-1.09,4.4.22,1.07,1.02,2.25,2.71,2.37,1.67.11,3.13-.92,7.33-3.65,4.21-2.73,8.61-5.88,16.07-8.73,7.45-2.85,10.98-3.84,20.09-5.78,9.13-1.94,18.32-2.61,21.72-3,2.73-.31,6.61-.08,7.71-.2,1.08-.11,1.18-.6,1.88-1.38.69-.76,1.45-1.53,1.47-1.81.01-.29-1.9-.34-3.81-.33ZM175.72,33.28c.29-.49,1-2.42,2.36-4.08,1.11-1.34,2.89-3.42,4.76-5.15,1.88-1.74,3.11-2.63,3.4-2.84.28-.2,1.24-.46.94.18-.29.63-1.84,2.81-2.76,3.85-.92,1.05-3.92,4.33-4.76,5.22-.84.9-2.2,2.5-2.2,2.5l-1.06,1.36s-.98,1.12-1.18.98c-.2-.16.22-1.52.5-2.02ZM92.98,47.56c.42-.52,1.34-2.09,3.37-4.33,1.37-1.51,3.84-4.16,6.21-5.99,2.38-1.84,3.48-2.2,3.84-2.42.34-.23,1.79-.53,1.34.15-.44.67-2.57,2.97-3.75,4.08-1.2,1.11-4.78,4.59-5.88,5.54-1.08.96-3.27,2.69-3.27,2.69l-1.15,1s-1.16.95-1.35.78c-.18-.16.24-.98.64-1.5ZM159.72,28.64c-.09.37-.23.74-.4,1.11l-5.44,5.18c-.82.97-2.23,2.39-3.06,3.34-2.17,2.49-6.35,8.39-6.17,9.01.79-1.45,4.73-6.4,6.44-8.57.78-.99,2.75-3.07,3.53-4,.55-.66,3.52-3.47,4.63-4.79-.83,1.79-2.32,3.45-3.19,4.57-1.4,1.81-5.45,6.41-7.33,8.57-1.9,2.16-3.99,4.63-4.89,5.18-.32.2-.49.45-1.12.1-.29-.74.44-1.88.85-2.71.79-1.55,3.41-5.54,5.24-7.57,1.81-2.02,5.41-5.85,6.78-7,1.79-1.5,3.29-2.92,4.14-2.42v.02Z"/>
          <path class="cls-2" d="M30.28,26.53s7.39-4.89,17.44-7.91c8.83-2.65,14.53-3.04,17.1-3.19,3.02-.17,6.55.35,7.01.46.47.11,1.99.53,3.27,2.22,1.27,1.68,1.66,3.38,1.77,3.74.11.37.32.96-.4,2.19-.72,1.23-1.68,2.87-3.89,4.83-2.2,1.96-3.84,3.54-4.86,4.32-1.02.78-1.45,1.17-1.45,1.17,0,0-.16.2.44.32.6.13,4.56.14,6.86.6,2.82.56,5.82,1.57,7.35,3.43,1.53,1.85,2.56,5.14,2.54,6.13-.02,1.01-.88,5.28-4.69,9.11-3.8,3.83-9.05,7.26-10.84,8.39-1.8,1.14-10.59,5.34-14.68,7.2-4.65,2.12-13.97,5.32-16.06,6.01-2.09.68-14.57,4.41-20.29,5.42-5.72,1.01-8.75,1.53-10.87.92-2.12-.62-4.64-2.84-5.19-3.46-.56-.63-1.06-1.1-.76-1.43.3-.33.71-.37,2.31.06,0,0,.5.25,5.3.6,2.65.19,7.31.4,17.16-2.39,11.12-3.16,21.15-6,29.73-10.14,8.58-4.13,14.14-6.89,18.48-11.02,4.18-3.99,5.89-6.02,6.59-8.62,0,0,.15-.56.25-1.62.09-1.07-.11-2.07-.74-2.72-.86-.88-2.78-2.25-6.08-2.6-3.28-.36-7.59-.46-10.7-.11-3.6.4-8.38,1.18-11.8,2.93-3.23,1.64-4.36,2.82-5.36,3.85-1.26,1.32-1.33,1.27-3.03,3.57-1.7,2.29-5.15,6.75-7.59,9.82-1.73,2.18-7.36,7.92-7.54,8.41-.17.48-.49,1.28-.6,1.78-.12.5-.37,1.02-.74,1.24-.35.21-1.13.63-1.89-.01-.76-.64-1.28-1.66-1.43-2.38-.1-.44-.23-.9.98-2.4,1.33-1.66,6.71-7.6,8.15-9.27,1.43-1.67,5.13-6.82,6.98-9.14,2.67-3.35,6.25-8.17,8.09-10.45,1.83-2.29,4.01-5.58,4.57-6.32.76-1.02,1.26-1.84,1.6-1.89.35-.04.95.02,1.11.53.15.51.47,2.27.5,2.7.03.44.12,1.02-.51,1.97-.63.95-1.62,2.22-1.93,2.56-.3.33-1.13,1.26-.22,1.05.9-.21,2.36-.51,5.67-2.03,3.26-1.48,7.06-3.83,9.12-5.66,2.06-1.84,4.56-3.98,5.64-5.47,1.08-1.49,1.83-2.23,1.63-3.33-.15-.84-.66-1.28-2.21-1.49-2.55-.35-6.7-.26-11.11.51-4.41.77-10.52,2.25-15.01,4.01-4.5,1.76-8.59,3.56-10.58,5.33-1.98,1.76-3.15,3.38-3.89,4.11-.74.72-1.34,1.32-1.85.99-.52-.33-1.03-.59-.74-2.35.28-1.77.67-3.05.94-3.73.39-.95.95-1.33.95-1.33"/>
        </g>
      </g>
      <g>
        <g>
          <g>
            <g>
              <rect class="cls-2" x="69.8" y="71.09" width=".8" height="5.45"/>
              <path class="cls-2" d="M76.2,76.54h.73v-1.61c0-.44.01-.75.15-.96.15-.25.43-.4.78-.4.61,0,.7.37.7,1.15v1.81h.74v-2.14c0-.43,0-.75-.16-1.01-.19-.33-.53-.5-1-.5-.56,0-.94.21-1.24.7v-.58h-.69v3.53Z"/>
              <path class="cls-2" d="M87.18,74.01v-.91c-.25-.15-.53-.22-.85-.22-1.06,0-1.78.76-1.78,1.9s.7,1.9,1.7,1.9c.35,0,.66-.08.93-.25v-.93c-.21.3-.49.44-.85.44-.64,0-1.03-.44-1.03-1.18s.4-1.17.99-1.17c.35,0,.66.15.88.42Z"/>
            </g>
            <path class="cls-2" d="M92.53,76.13c0,.27.19.48.44.48s.44-.21.44-.48-.19-.5-.44-.5-.44.22-.44.5Z"/>
          </g>
          <text class="cls-1" transform="translate(107.11 76.88) scale(1 1.03)"><tspan x="0" y="0">A Print Solutions Company</tspan></text>
        </g>
        <g>
          <circle class="cls-6" cx="151.77" cy="63.06" r="3.17"/>
          <circle class="cls-5" cx="168.42" cy="63.06" r="3.17"/>
          <circle class="cls-4" cx="183.73" cy="63.06" r="3.17"/>
          <circle class="cls-3" cx="198.78" cy="63.06" r="3.17"/>
        </g>
        <rect class="cls-2" x="69.23" y="68.91" width="133.02" height=".43"/>
      </g>
    </g>
  </g>
</svg>